Coordinates
version=1
nRows=8
nColumns=36
inDegrees=yes

Units are S.I. units (second, meters, Newtons, ...)
If the header above contains a line with 'inDegrees', this indicates whether rotational values are in degrees (yes) or radians (no).

endheader
time	pelvis_tilt	pelvis_list	pelvis_rotation	pelvis_tx	pelvis_ty	pelvis_tz	hip_flexion_r	hip_adduction_r	hip_rotation_r	knee_angle_r	knee_angle_r_beta	ankle_angle_r	subtalar_angle_r	mtp_angle_r	hip_flexion_l	hip_adduction_l	hip_rotation_l	knee_angle_l	knee_angle_l_beta	ankle_angle_l	subtalar_angle_l	mtp_angle_l	lumbar_extension	lumbar_bending	lumbar_rotation	arm_flex_r	arm_add_r	arm_rot_r	elbow_flex_r	pro_sup_r	arm_flex_l	arm_add_l	arm_rot_l	elbow_flex_l	pro_sup_l
      5.00000000	     -6.17780085	     18.54431783	     11.46813508	      0.70611765	      0.74710490	      0.02881293	     73.64290964	    -27.09745131	      9.38189152	     37.61413514	      0.65649050	     -4.89620402	      1.88770131	     -7.49999987	     52.96548662	     27.51606870	    -10.06755117	     73.49645541	      1.28275514	     27.22791902	    -15.79045513	     -7.49999987	    -46.04350198	    -14.24458367	    -22.25836012	     44.99257062	      0.27354421	     61.58793799	    119.65247646	     94.35806154	     67.43725902	    -18.89948696	     61.70384824	    121.22915067	     87.19454531
      5.01666670	     -6.29406995	     18.74104554	     11.65578827	      0.70588009	      0.74956896	      0.02881243	     73.63449543	    -27.45362376	      9.08589584	     37.33388481	      0.65159921	     -5.16091117	      2.15796480	     -7.49999987	     52.97280756	     27.80915682	    -10.08177569	     73.48777582	      1.28260365	     27.27672686	    -15.89916010	     -7.49999987	    -46.31208684	    -14.05268970	    -22.55869131	     44.43121942	     -0.09683733	     63.45731106	    119.02820401	     93.31077312	     67.28796750	    -18.85074545	     61.91043461	    120.56587844	     86.69375367
      5.03333330	     -6.37394555	     18.88036161	     11.61581757	      0.71087827	      0.74560354	      0.02718550	     73.56927293	    -27.58589995	      8.92198204	     37.10478249	      0.64760062	     -5.01420702	      2.57312592	     -7.49999987	     52.85767922	     27.93379791	    -10.14698651	     73.54063079	      1.28352614	     27.60737253	    -15.68301879	     -7.49999987	    -46.39352601	    -14.08922443	    -22.38951872	     43.59663264	     -0.92011057	     65.42937246	    118.71708344	     91.52024075	     66.72798781	    -18.36468383	     63.09494850	    120.69053208	     85.59454014
      5.05000000	     -6.80993105	     18.98186265	     11.73029564	      0.70562445	      0.73948727	      0.02984750	     74.04906979	    -27.59857588	      9.02149655	     37.25756340	      0.65026715	     -5.14079197	      2.60308912	     -7.49999987	     53.35632238	     27.98756445	    -10.35369119	     73.74253025	      1.28704995	     27.71932448	    -15.76286977	     -7.49999987	    -46.13212559	    -14.19246946	    -22.50113789	     43.93456273	     -0.67029707	     64.96011425	    118.66957809	     89.69754128	     67.29564168	    -18.21436376	     64.32611856	    121.39702988	     84.54852404
      5.06666670	     -7.40847091	     18.96848651	     11.97910282	      0.70615724	      0.73617625	      0.02982612	     74.74194878	    -27.60715189	      9.11277937	     37.42356949	      0.65316451	     -5.49267089	      2.68183828	     -7.49999987	     54.15794781	     27.99358021	    -10.55665752	     74.08458179	      1.29301988	     27.83377105	    -15.69151868	     -7.49999987	    -45.79404005	    -14.24738853	    -22.46553967	     44.37216845	     -0.00884517	     63.50400839	    119.29094061	     94.50320250	     67.93626750	    -17.84329990	     64.39420657	    122.22596655	     88.46273980
      5.08333330	     -7.88352156	     18.84870928	     12.30000216	      0.70611602	      0.73558472	      0.02972830	     75.29408517	    -27.67532566	      9.06298388	     37.63714488	      0.65689210	     -5.48081908	      2.72443001	     -7.49999987	     54.92873750	     27.93326967	    -10.64943072	     74.54491230	      1.30105416	     27.91235747	    -15.83217640	     -7.49999987	    -45.66413609	    -14.04752655	    -22.53665034	     43.91055795	     -0.25935676	     63.13881105	    118.21890132	     93.16929876	     67.99889675	    -18.10457293	     64.36609337	    121.35835872	     88.21362964
      5.10000000	     -8.21000278	     18.77467823	     12.46483394	      0.70648420	      0.73481763	      0.02944554	     75.63797567	    -27.68903683	      8.95814675	     37.86182173	      0.66081345	     -5.39428193	      2.96933530	     -7.49999987	     55.47552133	     27.87036749	    -10.74002143	     74.89817714	      1.30721979	     27.97270556	    -16.06502437	     -7.49999987	    -45.85993833	    -13.88607994	    -22.39476730	     43.90452353	     -0.02170584	     61.80353434	    117.58896176	     85.95810259	     68.60446066	    -17.90663741	     64.54987906	    121.08382713	     81.88269795
      5.11666670	     -8.63600113	     18.55550262	     12.62543269	      0.71107570	      0.73521620	      0.02704580	     75.89923357	    -27.70475693	      8.58996329	     37.89894717	      0.66146141	     -5.31679191	      3.04047083	     -7.49999987	     55.96593889	     27.78957082	    -10.64450362	     75.22026767	      1.31284134	     28.10439124	    -15.88760780	     -7.49999987	    -45.70498831	    -13.60365569	    -22.21233306	     42.80223413	     -0.25878086	     61.26434233	    117.60932709	     87.08563080	     67.97381060	    -17.50892096	     63.67874972	    120.75864953	     82.71932401
